<svg id="Capa_1" enable-background="new 0 0 512 512" height="512" viewBox="0 0 512 512" width="512" xmlns="http://www.w3.org/2000/svg"><g><path d="m442.74 263.839c-2.386-15.268-11.245-30.094-22.986-40.142 13.403-11.562 21.912-28.649 21.912-47.697 0-34.738-28.262-63-63-63s-63 28.262-63 63c0 18.839 8.323 35.76 21.471 47.315l-81.137 81.138-81.138-81.137c13.149-11.555 21.471-28.476 21.471-47.315 0-34.738-28.262-63-63-63s-63 28.262-63 63c0 19.048 8.509 36.135 21.912 47.697-11.74 10.048-20.6 24.874-22.986 40.142l-22.784 145.827h39.858v102.333h30v-102.333h34v102.333h30v-102.333h39.859l-18.258-116.853 54.066 54.065 54.065-54.065-18.258 116.853h39.859v102.333h30v-102.333h34v102.333h30v-102.333h39.858zm-309.407-120.839c18.196 0 33 14.804 33 33s-14.804 33-33 33-33-14.804-33-33 14.804-33 33-33zm-51.808 236.667 17.375-111.197c2.668-17.076 17.148-29.47 34.433-29.47s31.766 12.394 34.434 29.47l17.375 111.196h-103.617zm297.142-236.667c18.196 0 33 14.804 33 33s-14.804 33-33 33-33-14.804-33-33 14.804-33 33-33zm-51.809 236.667 17.375-111.196c2.668-17.077 17.15-29.471 34.434-29.471s31.765 12.394 34.433 29.47l17.375 111.196h-103.617z"/><path d="m256 169.125 80.99-80.957c20.138-20.137 20.138-52.903 0-73.041h-.001c-9.755-9.755-22.724-15.127-36.52-15.127-13.795 0-26.765 5.372-36.52 15.127l-7.949 7.949-7.949-7.949c-9.755-9.755-22.725-15.127-36.521-15.127-13.795 0-26.766 5.372-36.52 15.127-20.138 20.138-20.138 52.904 0 73.041zm-59.776-132.785c4.089-4.089 9.525-6.34 15.308-6.34 5.781 0 11.218 2.251 15.307 6.341l29.161 29.161 29.162-29.162c4.089-4.089 9.525-6.34 15.308-6.34s11.219 2.252 15.308 6.34c8.44 8.44 8.44 22.174 0 30.615l-59.72 59.719-.103-.103-.058.058-59.675-59.674c-4.089-4.089-6.34-9.525-6.34-15.307.001-5.782 2.253-11.218 6.342-15.308z"/></g></svg>