<svg id="_x31_" enable-background="new 0 0 24 24" height="512" viewBox="0 0 24 24" width="512" xmlns="http://www.w3.org/2000/svg"><g><g><path d="m12 24c-6.617 0-12-5.383-12-12s5.383-12 12-12 12 5.383 12 12-5.383 12-12 12zm0-23c-6.065 0-11 4.935-11 11s4.935 11 11 11 11-4.935 11-11-4.935-11-11-11z"/></g></g><g><g><path d="m20.129 20.629c-.128 0-.256-.049-.354-.146l-16.26-16.261c-.195-.195-.195-.512 0-.707s.512-.195.707 0l16.261 16.261c.195.195.195.512 0 .707-.098.097-.226.146-.354.146z"/></g></g><g><g><path d="m14.655 15.155c-.122 0-.245-.045-.341-.135-.202-.188-.213-.505-.024-.706l2.462-2.639c.999-1.072.999-2.816 0-3.889-.948-1.015-2.585-1.017-3.534 0l-.853.914c-.188.203-.543.203-.73 0l-.853-.914c-.887-.951-2.303-1.049-3.29-.229-.214.175-.529.147-.704-.065-.177-.213-.146-.528.066-.704 1.402-1.163 3.406-1.027 4.659.317l.487.522.487-.521c1.33-1.428 3.665-1.426 4.995 0 1.351 1.447 1.351 3.804.001 5.252l-2.463 2.639c-.097.105-.231.158-.365.158z"/></g></g><g><g><path d="m12 18c-.139 0-.271-.058-.365-.159l-5.117-5.483c-.57-.611-.926-1.419-1.002-2.272-.025-.276.178-.52.453-.544.271-.02.518.178.543.453.057.635.318 1.231.737 1.681l4.751 5.092.635-.68c.189-.201.507-.212.706-.024.202.188.213.505.024.706l-1 1.071c-.094.101-.226.159-.365.159z"/></g></g></svg>