<svg id="Capa_1" enable-background="new 0 0 512.001 512.001" height="512" viewBox="0 0 512.001 512.001" width="512" xmlns="http://www.w3.org/2000/svg"><g id="XMLID_2946_"><g id="XMLID_321_"><path id="XMLID_766_" d="m508.247 211.169-228.52-182.817c-13.971-11.175-33.482-11.175-47.453 0l-228.521 182.817c-4.313 3.45-5.012 9.743-1.562 14.056l34.96 43.7c1.656 2.071 4.068 3.399 6.704 3.692 2.642.293 5.281-.474 7.352-2.13l20.793-16.635v228.178c0 5.523 4.478 10 10 10h129c5.522 0 10-4.477 10-10s-4.478-10-10-10h-119v-234.178l164-131.2 164 131.2v234.178h-119c-5.522 0-10 4.477-10 10s4.478 10 10 10h129c5.522 0 10-4.477 10-10v-228.178l20.793 16.634c1.781 1.425 3.987 2.191 6.247 2.191.367 0 .736-.02 1.104-.061 2.636-.293 5.048-1.621 6.704-3.692l34.96-43.7c3.451-4.313 2.752-10.605-1.561-14.055zm-42.768 37.453-203.232-162.585c-1.826-1.461-4.037-2.191-6.247-2.191s-4.421.73-6.247 2.191l-203.231 162.585-22.466-28.083 220.712-176.569c6.613-5.292 15.852-5.291 22.465 0l220.712 176.569z"/><path id="XMLID_1246_" d="m341.62 249.707c-23.539-23.539-61.841-23.539-85.382 0l-.238.238-.238-.239c-23.54-23.539-61.842-23.54-85.382 0-23.539 23.54-23.539 61.841 0 85.381l72.524 72.524c3.61 3.61 8.353 5.415 13.096 5.415 4.742 0 9.485-1.806 13.097-5.416l72.523-72.523c23.54-23.539 23.54-61.84 0-85.38zm-14.142 71.238-71.478 71.478-71.478-71.478c-15.742-15.741-15.742-41.355 0-57.096 7.871-7.872 18.208-11.806 28.548-11.806 10.338 0 20.679 3.936 28.549 11.806l7.31 7.31c1.875 1.875 4.419 2.929 7.071 2.929s5.196-1.054 7.071-2.929l7.31-7.31c15.742-15.742 41.356-15.742 57.097 0 15.742 15.741 15.742 41.355 0 57.096z"/><path id="XMLID_1247_" d="m256 472.03c-2.63 0-5.21 1.07-7.07 2.93s-2.93 4.44-2.93 7.07 1.069 5.21 2.93 7.07 4.44 2.93 7.07 2.93 5.21-1.07 7.069-2.93c1.86-1.86 2.931-4.44 2.931-7.07s-1.07-5.21-2.931-7.07c-1.859-1.86-4.439-2.93-7.069-2.93z"/></g></g></svg>